<?xml version="1.0" encoding="UTF-8" standalone="no" ?>
<!DOCTYPE svg PUBLIC "-//W3C//DTD SVG 1.1//EN" "http://www.w3.org/Graphics/SVG/1.1/DTD/svg11.dtd">
<svg xmlns="http://www.w3.org/2000/svg" xmlns:xlink="http://www.w3.org/1999/xlink" version="1.1" width="800" height="800" viewBox="0 0 800 800" xml:space="preserve">
<desc>Created with Fabric.js 5.2.4</desc>
<defs>
</defs>
<g transform="matrix(1 0 0 1 400 400)" id="27b62d85-4f06-4882-a2a6-1848fdcd4689"  >
<rect style="stroke: none; stroke-width: 1; stroke-dasharray: none; stroke-linecap: butt; stroke-dashoffset: 0; stroke-linejoin: miter; stroke-miterlimit: 4; fill: rgb(255,255,255); fill-rule: nonzero; opacity: 1; visibility: hidden;" vector-effect="non-scaling-stroke"  x="-400" y="-400" rx="0" ry="0" width="800" height="800" />
</g>
<g transform="matrix(Infinity NaN NaN Infinity 0 0)" id="dbc5775e-9e5e-4f60-a269-90d707df0e23"  >
</g>
<g transform="matrix(1.19 0 0 1.54 451.5 311.54)"  >
<g style="" vector-effect="non-scaling-stroke"   >
		<g transform="matrix(1 0 0 1 0 0)"  >
<rect style="stroke: none; stroke-width: 1; stroke-dasharray: none; stroke-linecap: butt; stroke-dashoffset: 0; stroke-linejoin: miter; stroke-miterlimit: 4; fill: rgb(0,0,0); fill-rule: nonzero; opacity: 1; visibility: hidden;" vector-effect="non-scaling-stroke"  x="-540" y="-540" rx="0" ry="0" width="1080" height="1080" />
</g>
		<g transform="matrix(1 0 0 1 622.13 -350)"  >
<polygon style="stroke: rgb(44,91,186); stroke-width: 2; stroke-dasharray: none; stroke-linecap: butt; stroke-dashoffset: 0; stroke-linejoin: round; stroke-miterlimit: 4; fill: none; fill-rule: nonzero; opacity: 0.35;" vector-effect="non-scaling-stroke"  points="88.88,-50 -88.88,50 -88.88,-50 " />
</g>
		<g transform="matrix(1 0 0 1 444.38 -350)"  >
<polygon style="stroke: rgb(44,91,186); stroke-width: 2; stroke-dasharray: none; stroke-linecap: butt; stroke-dashoffset: 0; stroke-linejoin: round; stroke-miterlimit: 4; fill: none; fill-rule: nonzero; opacity: 0.35;" vector-effect="non-scaling-stroke"  points="-88.88,-50 88.88,-50 88.88,50 " />
</g>
		<g transform="matrix(1 0 0 1 444.38 -250)"  >
<polygon style="stroke: rgb(44,91,186); stroke-width: 2; stroke-dasharray: none; stroke-linecap: butt; stroke-dashoffset: 0; stroke-linejoin: round; stroke-miterlimit: 4; fill: none; fill-rule: nonzero; opacity: 0.35;" vector-effect="non-scaling-stroke"  points="-88.88,50 88.88,-50 88.88,50 " />
</g>
		<g transform="matrix(1 0 0 1 622.13 -250)"  >
<polygon style="stroke: rgb(44,91,186); stroke-width: 2; stroke-dasharray: none; stroke-linecap: butt; stroke-dashoffset: 0; stroke-linejoin: round; stroke-miterlimit: 4; fill: none; fill-rule: nonzero; opacity: 0.35;" vector-effect="non-scaling-stroke"  points="88.88,50 88.88,-50 -88.88,50 " />
</g>
		<g transform="matrix(1 0 0 1 266.63 -350)"  >
<polygon style="stroke: rgb(44,91,186); stroke-width: 2; stroke-dasharray: none; stroke-linecap: butt; stroke-dashoffset: 0; stroke-linejoin: round; stroke-miterlimit: 4; fill: none; fill-rule: nonzero; opacity: 0.35;" vector-effect="non-scaling-stroke"  points="-88.88,-50 88.88,-50 88.88,50 " />
</g>
		<g transform="matrix(1 0 0 1 88.88 -350)"  >
<polygon style="stroke: rgb(44,91,186); stroke-width: 2; stroke-dasharray: none; stroke-linecap: butt; stroke-dashoffset: 0; stroke-linejoin: round; stroke-miterlimit: 4; fill: none; fill-rule: nonzero; opacity: 0.35;" vector-effect="non-scaling-stroke"  points="88.88,50 88.88,-50 -88.88,50 " />
</g>
		<g transform="matrix(1 0 0 1 88.88 -250)"  >
<polygon style="stroke: rgb(44,91,186); stroke-width: 2; stroke-dasharray: none; stroke-linecap: butt; stroke-dashoffset: 0; stroke-linejoin: round; stroke-miterlimit: 4; fill: none; fill-rule: nonzero; opacity: 0.35;" vector-effect="non-scaling-stroke"  points="88.88,-50 -88.88,50 -88.88,-50 " />
</g>
		<g transform="matrix(1 0 0 1 266.63 -250)"  >
<polygon style="stroke: rgb(44,91,186); stroke-width: 2; stroke-dasharray: none; stroke-linecap: butt; stroke-dashoffset: 0; stroke-linejoin: round; stroke-miterlimit: 4; fill: none; fill-rule: nonzero; opacity: 0.35;" vector-effect="non-scaling-stroke"  points="-88.88,-50 -88.88,50 88.88,-50 " />
</g>
		<g transform="matrix(1 0 0 1 311.07 -175)"  >
<polygon style="stroke: rgb(44,91,186); stroke-width: 2; stroke-dasharray: none; stroke-linecap: butt; stroke-dashoffset: 0; stroke-linejoin: round; stroke-miterlimit: 4; fill: none; fill-rule: nonzero; opacity: 0.35;" vector-effect="non-scaling-stroke"  points="-44.44,25 -44.44,-25 44.44,-25 " />
</g>
		<g transform="matrix(1 0 0 1 222.19 -175)"  >
<polygon style="stroke: rgb(44,91,186); stroke-width: 2; stroke-dasharray: none; stroke-linecap: butt; stroke-dashoffset: 0; stroke-linejoin: round; stroke-miterlimit: 4; fill: none; fill-rule: nonzero; opacity: 0.35;" vector-effect="non-scaling-stroke"  points="44.44,25 44.44,-25 -44.44,25 " />
</g>
		<g transform="matrix(1 0 0 1 222.19 -125)"  >
<polygon style="stroke: rgb(44,91,186); stroke-width: 2; stroke-dasharray: none; stroke-linecap: butt; stroke-dashoffset: 0; stroke-linejoin: round; stroke-miterlimit: 4; fill: none; fill-rule: nonzero; opacity: 0.35;" vector-effect="non-scaling-stroke"  points="-44.44,25 44.44,-25 44.44,25 " />
</g>
		<g transform="matrix(1 0 0 1 311.07 -125)"  >
<polygon style="stroke: rgb(44,91,186); stroke-width: 2; stroke-dasharray: none; stroke-linecap: butt; stroke-dashoffset: 0; stroke-linejoin: round; stroke-miterlimit: 4; fill: none; fill-rule: nonzero; opacity: 0.35;" vector-effect="non-scaling-stroke"  points="-44.44,25 44.44,25 44.44,-25 " />
</g>
		<g transform="matrix(1 0 0 1 133.32 -175)"  >
<polygon style="stroke: rgb(44,91,186); stroke-width: 2; stroke-dasharray: none; stroke-linecap: butt; stroke-dashoffset: 0; stroke-linejoin: round; stroke-miterlimit: 4; fill: none; fill-rule: nonzero; opacity: 0.35;" vector-effect="non-scaling-stroke"  points="-44.44,-25 -44.44,25 44.44,-25 " />
</g>
		<g transform="matrix(1 0 0 1 44.44 -175)"  >
<polygon style="stroke: rgb(44,91,186); stroke-width: 2; stroke-dasharray: none; stroke-linecap: butt; stroke-dashoffset: 0; stroke-linejoin: round; stroke-miterlimit: 4; fill: none; fill-rule: nonzero; opacity: 0.35;" vector-effect="non-scaling-stroke"  points="-44.44,-25 44.44,25 -44.44,25 " />
</g>
		<g transform="matrix(1 0 0 1 44.44 -125)"  >
<polygon style="stroke: rgb(44,91,186); stroke-width: 2; stroke-dasharray: none; stroke-linecap: butt; stroke-dashoffset: 0; stroke-linejoin: round; stroke-miterlimit: 4; fill: none; fill-rule: nonzero; opacity: 0.35;" vector-effect="non-scaling-stroke"  points="44.44,-25 -44.44,-25 44.44,25 " />
</g>
		<g transform="matrix(1 0 0 1 133.32 -125)"  >
<polygon style="stroke: rgb(44,91,186); stroke-width: 2; stroke-dasharray: none; stroke-linecap: butt; stroke-dashoffset: 0; stroke-linejoin: round; stroke-miterlimit: 4; fill: none; fill-rule: nonzero; opacity: 0.35;" vector-effect="non-scaling-stroke"  points="-44.44,25 44.44,25 44.44,-25 " />
</g>
		<g transform="matrix(1 0 0 1 133.32 -75)"  >
<polygon style="stroke: rgb(44,91,186); stroke-width: 2; stroke-dasharray: none; stroke-linecap: butt; stroke-dashoffset: 0; stroke-linejoin: round; stroke-miterlimit: 4; fill: none; fill-rule: nonzero; opacity: 0.35;" vector-effect="non-scaling-stroke"  points="44.44,-25 -44.44,25 44.44,25 " />
</g>
		<g transform="matrix(1 0 0 1 44.44 -75)"  >
<polygon style="stroke: rgb(44,91,186); stroke-width: 2; stroke-dasharray: none; stroke-linecap: butt; stroke-dashoffset: 0; stroke-linejoin: round; stroke-miterlimit: 4; fill: none; fill-rule: nonzero; opacity: 0.35;" vector-effect="non-scaling-stroke"  points="44.44,25 -44.44,-25 44.44,-25 " />
</g>
		<g transform="matrix(1 0 0 1 44.44 -25)"  >
<polygon style="stroke: rgb(44,91,186); stroke-width: 2; stroke-dasharray: none; stroke-linecap: butt; stroke-dashoffset: 0; stroke-linejoin: round; stroke-miterlimit: 4; fill: none; fill-rule: nonzero; opacity: 0.35;" vector-effect="non-scaling-stroke"  points="-44.44,-25 44.44,25 -44.44,25 " />
</g>
		<g transform="matrix(1 0 0 1 133.32 -25)"  >
<polygon style="stroke: rgb(44,91,186); stroke-width: 2; stroke-dasharray: none; stroke-linecap: butt; stroke-dashoffset: 0; stroke-linejoin: round; stroke-miterlimit: 4; fill: none; fill-rule: nonzero; opacity: 0.35;" vector-effect="non-scaling-stroke"  points="44.44,25 -44.44,-25 44.44,-25 " />
</g>
		<g transform="matrix(1 0 0 1 311.07 -75)"  >
<polygon style="stroke: rgb(44,91,186); stroke-width: 2; stroke-dasharray: none; stroke-linecap: butt; stroke-dashoffset: 0; stroke-linejoin: round; stroke-miterlimit: 4; fill: none; fill-rule: nonzero; opacity: 0.35;" vector-effect="non-scaling-stroke"  points="44.44,25 -44.44,-25 44.44,-25 " />
</g>
		<g transform="matrix(1 0 0 1 222.19 -75)"  >
<polygon style="stroke: rgb(44,91,186); stroke-width: 2; stroke-dasharray: none; stroke-linecap: butt; stroke-dashoffset: 0; stroke-linejoin: round; stroke-miterlimit: 4; fill: none; fill-rule: nonzero; opacity: 0.35;" vector-effect="non-scaling-stroke"  points="-44.44,-25 44.44,25 -44.44,25 " />
</g>
		<g transform="matrix(1 0 0 1 222.19 -25)"  >
<polygon style="stroke: rgb(44,91,186); stroke-width: 2; stroke-dasharray: none; stroke-linecap: butt; stroke-dashoffset: 0; stroke-linejoin: round; stroke-miterlimit: 4; fill: none; fill-rule: nonzero; opacity: 0.35;" vector-effect="non-scaling-stroke"  points="44.44,25 -44.44,25 -44.44,-25 " />
</g>
		<g transform="matrix(1 0 0 1 311.07 -25)"  >
<polygon style="stroke: rgb(44,91,186); stroke-width: 2; stroke-dasharray: none; stroke-linecap: butt; stroke-dashoffset: 0; stroke-linejoin: round; stroke-miterlimit: 4; fill: none; fill-rule: nonzero; opacity: 0.35;" vector-effect="non-scaling-stroke"  points="-44.44,25 44.44,-25 44.44,25 " />
</g>
		<g transform="matrix(1 0 0 1 622.13 -150)"  >
<polygon style="stroke: rgb(44,91,186); stroke-width: 2; stroke-dasharray: none; stroke-linecap: butt; stroke-dashoffset: 0; stroke-linejoin: round; stroke-miterlimit: 4; fill: none; fill-rule: nonzero; opacity: 0.35;" vector-effect="non-scaling-stroke"  points="88.88,50 -88.88,-50 -88.88,50 " />
</g>
		<g transform="matrix(1 0 0 1 444.38 -150)"  >
<polygon style="stroke: rgb(44,91,186); stroke-width: 2; stroke-dasharray: none; stroke-linecap: butt; stroke-dashoffset: 0; stroke-linejoin: round; stroke-miterlimit: 4; fill: none; fill-rule: nonzero; opacity: 0.35;" vector-effect="non-scaling-stroke"  points="88.88,50 88.88,-50 -88.88,50 " />
</g>
		<g transform="matrix(1 0 0 1 488.82 -75)"  >
<polygon style="stroke: rgb(44,91,186); stroke-width: 2; stroke-dasharray: none; stroke-linecap: butt; stroke-dashoffset: 0; stroke-linejoin: round; stroke-miterlimit: 4; fill: none; fill-rule: nonzero; opacity: 0.35;" vector-effect="non-scaling-stroke"  points="-44.44,25 44.44,-25 -44.44,-25 " />
</g>
		<g transform="matrix(1 0 0 1 399.94 -75)"  >
<polygon style="stroke: rgb(44,91,186); stroke-width: 2; stroke-dasharray: none; stroke-linecap: butt; stroke-dashoffset: 0; stroke-linejoin: round; stroke-miterlimit: 4; fill: none; fill-rule: nonzero; opacity: 0.35;" vector-effect="non-scaling-stroke"  points="44.44,25 44.44,-25 -44.44,-25 " />
</g>
		<g transform="matrix(1 0 0 1 399.94 -25)"  >
<polygon style="stroke: rgb(44,91,186); stroke-width: 2; stroke-dasharray: none; stroke-linecap: butt; stroke-dashoffset: 0; stroke-linejoin: round; stroke-miterlimit: 4; fill: none; fill-rule: nonzero; opacity: 0.35;" vector-effect="non-scaling-stroke"  points="44.44,-25 -44.44,-25 44.44,25 " />
</g>
		<g transform="matrix(1 0 0 1 488.82 -25)"  >
<polygon style="stroke: rgb(44,91,186); stroke-width: 2; stroke-dasharray: none; stroke-linecap: butt; stroke-dashoffset: 0; stroke-linejoin: round; stroke-miterlimit: 4; fill: none; fill-rule: nonzero; opacity: 0.35;" vector-effect="non-scaling-stroke"  points="44.44,25 -44.44,25 44.44,-25 " />
</g>
		<g transform="matrix(1 0 0 1 622.13 -50)"  >
<polygon style="stroke: rgb(44,91,186); stroke-width: 2; stroke-dasharray: none; stroke-linecap: butt; stroke-dashoffset: 0; stroke-linejoin: round; stroke-miterlimit: 4; fill: none; fill-rule: nonzero; opacity: 0.35;" vector-effect="non-scaling-stroke"  points="-88.88,-50 88.88,50 88.88,-50 " />
</g>
		<g transform="matrix(1 0 0 1 -88.88 -350)"  >
<polygon style="stroke: rgb(44,91,186); stroke-width: 2; stroke-dasharray: none; stroke-linecap: butt; stroke-dashoffset: 0; stroke-linejoin: round; stroke-miterlimit: 4; fill: none; fill-rule: nonzero; opacity: 0.35;" vector-effect="non-scaling-stroke"  points="88.88,-50 88.88,50 -88.88,50 " />
</g>
		<g transform="matrix(1 0 0 1 -266.63 -350)"  >
<polygon style="stroke: rgb(44,91,186); stroke-width: 2; stroke-dasharray: none; stroke-linecap: butt; stroke-dashoffset: 0; stroke-linejoin: round; stroke-miterlimit: 4; fill: none; fill-rule: nonzero; opacity: 0.35;" vector-effect="non-scaling-stroke"  points="88.88,50 -88.88,-50 -88.88,50 " />
</g>
		<g transform="matrix(1 0 0 1 -266.63 -250)"  >
<polygon style="stroke: rgb(44,91,186); stroke-width: 2; stroke-dasharray: none; stroke-linecap: butt; stroke-dashoffset: 0; stroke-linejoin: round; stroke-miterlimit: 4; fill: none; fill-rule: nonzero; opacity: 0.35;" vector-effect="non-scaling-stroke"  points="88.88,-50 88.88,50 -88.88,-50 " />
</g>
		<g transform="matrix(1 0 0 1 -88.88 -250)"  >
<polygon style="stroke: rgb(44,91,186); stroke-width: 2; stroke-dasharray: none; stroke-linecap: butt; stroke-dashoffset: 0; stroke-linejoin: round; stroke-miterlimit: 4; fill: none; fill-rule: nonzero; opacity: 0.35;" vector-effect="non-scaling-stroke"  points="88.88,-50 -88.88,50 88.88,50 " />
</g>
		<g transform="matrix(1 0 0 1 -444.38 -350)"  >
<polygon style="stroke: rgb(44,91,186); stroke-width: 2; stroke-dasharray: none; stroke-linecap: butt; stroke-dashoffset: 0; stroke-linejoin: round; stroke-miterlimit: 4; fill: none; fill-rule: nonzero; opacity: 0.35;" vector-effect="non-scaling-stroke"  points="88.88,-50 88.88,50 -88.88,50 " />
</g>
		<g transform="matrix(1 0 0 1 -622.13 -350)"  >
<polygon style="stroke: rgb(44,91,186); stroke-width: 2; stroke-dasharray: none; stroke-linecap: butt; stroke-dashoffset: 0; stroke-linejoin: round; stroke-miterlimit: 4; fill: none; fill-rule: nonzero; opacity: 0.35;" vector-effect="non-scaling-stroke"  points="88.88,50 -88.88,-50 88.88,-50 " />
</g>
		<g transform="matrix(1 0 0 1 -622.13 -250)"  >
<polygon style="stroke: rgb(44,91,186); stroke-width: 2; stroke-dasharray: none; stroke-linecap: butt; stroke-dashoffset: 0; stroke-linejoin: round; stroke-miterlimit: 4; fill: none; fill-rule: nonzero; opacity: 0.35;" vector-effect="non-scaling-stroke"  points="88.88,-50 -88.88,50 -88.88,-50 " />
</g>
		<g transform="matrix(1 0 0 1 -444.38 -250)"  >
<polygon style="stroke: rgb(44,91,186); stroke-width: 2; stroke-dasharray: none; stroke-linecap: butt; stroke-dashoffset: 0; stroke-linejoin: round; stroke-miterlimit: 4; fill: none; fill-rule: nonzero; opacity: 0.35;" vector-effect="non-scaling-stroke"  points="88.88,50 -88.88,-50 -88.88,50 " />
</g>
		<g transform="matrix(1 0 0 1 -399.94 -175)"  >
<polygon style="stroke: rgb(44,91,186); stroke-width: 2; stroke-dasharray: none; stroke-linecap: butt; stroke-dashoffset: 0; stroke-linejoin: round; stroke-miterlimit: 4; fill: none; fill-rule: nonzero; opacity: 0.35;" vector-effect="non-scaling-stroke"  points="-44.44,-25 -44.44,25 44.44,25 " />
</g>
		<g transform="matrix(1 0 0 1 -488.81 -175)"  >
<polygon style="stroke: rgb(44,91,186); stroke-width: 2; stroke-dasharray: none; stroke-linecap: butt; stroke-dashoffset: 0; stroke-linejoin: round; stroke-miterlimit: 4; fill: none; fill-rule: nonzero; opacity: 0.35;" vector-effect="non-scaling-stroke"  points="-44.44,25 44.44,-25 -44.44,-25 " />
</g>
		<g transform="matrix(1 0 0 1 -488.81 -125)"  >
<polygon style="stroke: rgb(44,91,186); stroke-width: 2; stroke-dasharray: none; stroke-linecap: butt; stroke-dashoffset: 0; stroke-linejoin: round; stroke-miterlimit: 4; fill: none; fill-rule: nonzero; opacity: 0.35;" vector-effect="non-scaling-stroke"  points="44.44,25 -44.44,25 44.44,-25 " />
</g>
		<g transform="matrix(1 0 0 1 -399.94 -125)"  >
<polygon style="stroke: rgb(44,91,186); stroke-width: 2; stroke-dasharray: none; stroke-linecap: butt; stroke-dashoffset: 0; stroke-linejoin: round; stroke-miterlimit: 4; fill: none; fill-rule: nonzero; opacity: 0.35;" vector-effect="non-scaling-stroke"  points="-44.44,-25 44.44,-25 44.44,25 " />
</g>
		<g transform="matrix(1 0 0 1 -622.13 -150)"  >
<polygon style="stroke: rgb(44,91,186); stroke-width: 2; stroke-dasharray: none; stroke-linecap: butt; stroke-dashoffset: 0; stroke-linejoin: round; stroke-miterlimit: 4; fill: none; fill-rule: nonzero; opacity: 0.35;" vector-effect="non-scaling-stroke"  points="-88.88,-50 88.88,50 88.88,-50 " />
</g>
		<g transform="matrix(1 0 0 1 -622.13 -50)"  >
<polygon style="stroke: rgb(44,91,186); stroke-width: 2; stroke-dasharray: none; stroke-linecap: butt; stroke-dashoffset: 0; stroke-linejoin: round; stroke-miterlimit: 4; fill: none; fill-rule: nonzero; opacity: 0.35;" vector-effect="non-scaling-stroke"  points="88.88,-50 -88.88,50 -88.88,-50 " />
</g>
		<g transform="matrix(1 0 0 1 -444.38 -50)"  >
<polygon style="stroke: rgb(44,91,186); stroke-width: 2; stroke-dasharray: none; stroke-linecap: butt; stroke-dashoffset: 0; stroke-linejoin: round; stroke-miterlimit: 4; fill: none; fill-rule: nonzero; opacity: 0.35;" vector-effect="non-scaling-stroke"  points="88.88,50 88.88,-50 -88.88,-50 " />
</g>
		<g transform="matrix(1 0 0 1 -88.88 -150)"  >
<polygon style="stroke: rgb(44,91,186); stroke-width: 2; stroke-dasharray: none; stroke-linecap: butt; stroke-dashoffset: 0; stroke-linejoin: round; stroke-miterlimit: 4; fill: none; fill-rule: nonzero; opacity: 0.35;" vector-effect="non-scaling-stroke"  points="-88.88,-50 88.88,-50 88.88,50 " />
</g>
		<g transform="matrix(1 0 0 1 -222.19 -175)"  >
<polygon style="stroke: rgb(44,91,186); stroke-width: 2; stroke-dasharray: none; stroke-linecap: butt; stroke-dashoffset: 0; stroke-linejoin: round; stroke-miterlimit: 4; fill: none; fill-rule: nonzero; opacity: 0.35;" vector-effect="non-scaling-stroke"  points="-44.44,25 44.44,25 44.44,-25 " />
</g>
		<g transform="matrix(1 0 0 1 -311.06 -175)"  >
<polygon style="stroke: rgb(44,91,186); stroke-width: 2; stroke-dasharray: none; stroke-linecap: butt; stroke-dashoffset: 0; stroke-linejoin: round; stroke-miterlimit: 4; fill: none; fill-rule: nonzero; opacity: 0.35;" vector-effect="non-scaling-stroke"  points="44.44,-25 -44.44,-25 -44.44,25 " />
</g>
		<g transform="matrix(1 0 0 1 -311.06 -125)"  >
<polygon style="stroke: rgb(44,91,186); stroke-width: 2; stroke-dasharray: none; stroke-linecap: butt; stroke-dashoffset: 0; stroke-linejoin: round; stroke-miterlimit: 4; fill: none; fill-rule: nonzero; opacity: 0.35;" vector-effect="non-scaling-stroke"  points="44.44,-25 44.44,25 -44.44,-25 " />
</g>
		<g transform="matrix(1 0 0 1 -222.19 -125)"  >
<polygon style="stroke: rgb(44,91,186); stroke-width: 2; stroke-dasharray: none; stroke-linecap: butt; stroke-dashoffset: 0; stroke-linejoin: round; stroke-miterlimit: 4; fill: none; fill-rule: nonzero; opacity: 0.35;" vector-effect="non-scaling-stroke"  points="44.44,25 44.44,-25 -44.44,25 " />
</g>
		<g transform="matrix(1 0 0 1 -222.19 -75)"  >
<polygon style="stroke: rgb(44,91,186); stroke-width: 2; stroke-dasharray: none; stroke-linecap: butt; stroke-dashoffset: 0; stroke-linejoin: round; stroke-miterlimit: 4; fill: none; fill-rule: nonzero; opacity: 0.35;" vector-effect="non-scaling-stroke"  points="44.44,25 -44.44,25 44.44,-25 " />
</g>
		<g transform="matrix(1 0 0 1 -311.06 -75)"  >
<polygon style="stroke: rgb(44,91,186); stroke-width: 2; stroke-dasharray: none; stroke-linecap: butt; stroke-dashoffset: 0; stroke-linejoin: round; stroke-miterlimit: 4; fill: none; fill-rule: nonzero; opacity: 0.35;" vector-effect="non-scaling-stroke"  points="-44.44,25 44.44,25 -44.44,-25 " />
</g>
		<g transform="matrix(1 0 0 1 -311.06 -25)"  >
<polygon style="stroke: rgb(44,91,186); stroke-width: 2; stroke-dasharray: none; stroke-linecap: butt; stroke-dashoffset: 0; stroke-linejoin: round; stroke-miterlimit: 4; fill: none; fill-rule: nonzero; opacity: 0.35;" vector-effect="non-scaling-stroke"  points="-44.44,-25 44.44,25 -44.44,25 " />
</g>
		<g transform="matrix(1 0 0 1 -222.19 -25)"  >
<polygon style="stroke: rgb(44,91,186); stroke-width: 2; stroke-dasharray: none; stroke-linecap: butt; stroke-dashoffset: 0; stroke-linejoin: round; stroke-miterlimit: 4; fill: none; fill-rule: nonzero; opacity: 0.35;" vector-effect="non-scaling-stroke"  points="44.44,-25 -44.44,25 44.44,25 " />
</g>
		<g transform="matrix(1 0 0 1 -44.44 -75)"  >
<polygon style="stroke: rgb(44,91,186); stroke-width: 2; stroke-dasharray: none; stroke-linecap: butt; stroke-dashoffset: 0; stroke-linejoin: round; stroke-miterlimit: 4; fill: none; fill-rule: nonzero; opacity: 0.35;" vector-effect="non-scaling-stroke"  points="-44.44,25 44.44,-25 44.44,25 " />
</g>
		<g transform="matrix(1 0 0 1 -133.31 -75)"  >
<polygon style="stroke: rgb(44,91,186); stroke-width: 2; stroke-dasharray: none; stroke-linecap: butt; stroke-dashoffset: 0; stroke-linejoin: round; stroke-miterlimit: 4; fill: none; fill-rule: nonzero; opacity: 0.35;" vector-effect="non-scaling-stroke"  points="-44.44,25 44.44,-25 44.44,25 " />
</g>
		<g transform="matrix(1 0 0 1 -133.31 -25)"  >
<polygon style="stroke: rgb(44,91,186); stroke-width: 2; stroke-dasharray: none; stroke-linecap: butt; stroke-dashoffset: 0; stroke-linejoin: round; stroke-miterlimit: 4; fill: none; fill-rule: nonzero; opacity: 0.35;" vector-effect="non-scaling-stroke"  points="44.44,-25 44.44,25 -44.44,25 " />
</g>
		<g transform="matrix(1 0 0 1 -44.44 -25)"  >
<polygon style="stroke: rgb(44,91,186); stroke-width: 2; stroke-dasharray: none; stroke-linecap: butt; stroke-dashoffset: 0; stroke-linejoin: round; stroke-miterlimit: 4; fill: none; fill-rule: nonzero; opacity: 0.35;" vector-effect="non-scaling-stroke"  points="44.44,25 44.44,-25 -44.44,-25 " />
</g>
		<g transform="matrix(1 0 0 1 -44.44 25)"  >
<polygon style="stroke: rgb(44,91,186); stroke-width: 2; stroke-dasharray: none; stroke-linecap: butt; stroke-dashoffset: 0; stroke-linejoin: round; stroke-miterlimit: 4; fill: none; fill-rule: nonzero; opacity: 0.35;" vector-effect="non-scaling-stroke"  points="-44.44,-25 44.44,25 -44.44,25 " />
</g>
		<g transform="matrix(1 0 0 1 -133.31 25)"  >
<polygon style="stroke: rgb(44,91,186); stroke-width: 2; stroke-dasharray: none; stroke-linecap: butt; stroke-dashoffset: 0; stroke-linejoin: round; stroke-miterlimit: 4; fill: none; fill-rule: nonzero; opacity: 0.35;" vector-effect="non-scaling-stroke"  points="-44.44,-25 -44.44,25 44.44,-25 " />
</g>
		<g transform="matrix(1 0 0 1 -133.31 75)"  >
<polygon style="stroke: rgb(44,91,186); stroke-width: 2; stroke-dasharray: none; stroke-linecap: butt; stroke-dashoffset: 0; stroke-linejoin: round; stroke-miterlimit: 4; fill: none; fill-rule: nonzero; opacity: 0.35;" vector-effect="non-scaling-stroke"  points="-44.44,-25 44.44,25 -44.44,25 " />
</g>
		<g transform="matrix(1 0 0 1 -44.44 75)"  >
<polygon style="stroke: rgb(44,91,186); stroke-width: 2; stroke-dasharray: none; stroke-linecap: butt; stroke-dashoffset: 0; stroke-linejoin: round; stroke-miterlimit: 4; fill: none; fill-rule: nonzero; opacity: 0.35;" vector-effect="non-scaling-stroke"  points="-44.44,-25 44.44,25 -44.44,25 " />
</g>
		<g transform="matrix(1 0 0 1 -222.19 25)"  >
<polygon style="stroke: rgb(44,91,186); stroke-width: 2; stroke-dasharray: none; stroke-linecap: butt; stroke-dashoffset: 0; stroke-linejoin: round; stroke-miterlimit: 4; fill: none; fill-rule: nonzero; opacity: 0.35;" vector-effect="non-scaling-stroke"  points="44.44,25 -44.44,-25 44.44,-25 " />
</g>
		<g transform="matrix(1 0 0 1 -311.06 25)"  >
<polygon style="stroke: rgb(44,91,186); stroke-width: 2; stroke-dasharray: none; stroke-linecap: butt; stroke-dashoffset: 0; stroke-linejoin: round; stroke-miterlimit: 4; fill: none; fill-rule: nonzero; opacity: 0.35;" vector-effect="non-scaling-stroke"  points="-44.44,-25 44.44,25 -44.44,25 " />
</g>
		<g transform="matrix(1 0 0 1 -311.06 75)"  >
<polygon style="stroke: rgb(44,91,186); stroke-width: 2; stroke-dasharray: none; stroke-linecap: butt; stroke-dashoffset: 0; stroke-linejoin: round; stroke-miterlimit: 4; fill: none; fill-rule: nonzero; opacity: 0.35;" vector-effect="non-scaling-stroke"  points="44.44,25 44.44,-25 -44.44,25 " />
</g>
		<g transform="matrix(1 0 0 1 -222.19 75)"  >
<polygon style="stroke: rgb(44,91,186); stroke-width: 2; stroke-dasharray: none; stroke-linecap: butt; stroke-dashoffset: 0; stroke-linejoin: round; stroke-miterlimit: 4; fill: none; fill-rule: nonzero; opacity: 0.35;" vector-effect="non-scaling-stroke"  points="44.44,-25 -44.44,25 -44.44,-25 " />
</g>
		<g transform="matrix(1 0 0 1 -222.19 125)"  >
<polygon style="stroke: rgb(44,91,186); stroke-width: 2; stroke-dasharray: none; stroke-linecap: butt; stroke-dashoffset: 0; stroke-linejoin: round; stroke-miterlimit: 4; fill: none; fill-rule: nonzero; opacity: 0.35;" vector-effect="non-scaling-stroke"  points="44.44,25 44.44,-25 -44.44,-25 " />
</g>
		<g transform="matrix(1 0 0 1 -311.06 125)"  >
<polygon style="stroke: rgb(44,91,186); stroke-width: 2; stroke-dasharray: none; stroke-linecap: butt; stroke-dashoffset: 0; stroke-linejoin: round; stroke-miterlimit: 4; fill: none; fill-rule: nonzero; opacity: 0.35;" vector-effect="non-scaling-stroke"  points="44.44,25 44.44,-25 -44.44,-25 " />
</g>
		<g transform="matrix(1 0 0 1 -311.06 175)"  >
<polygon style="stroke: rgb(44,91,186); stroke-width: 2; stroke-dasharray: none; stroke-linecap: butt; stroke-dashoffset: 0; stroke-linejoin: round; stroke-miterlimit: 4; fill: none; fill-rule: nonzero; opacity: 0.35;" vector-effect="non-scaling-stroke"  points="44.44,25 44.44,-25 -44.44,-25 " />
</g>
		<g transform="matrix(1 0 0 1 -222.19 175)"  >
<polygon style="stroke: rgb(44,91,186); stroke-width: 2; stroke-dasharray: none; stroke-linecap: butt; stroke-dashoffset: 0; stroke-linejoin: round; stroke-miterlimit: 4; fill: none; fill-rule: nonzero; opacity: 0.35;" vector-effect="non-scaling-stroke"  points="44.44,25 -44.44,25 44.44,-25 " />
</g>
		<g transform="matrix(1 0 0 1 -44.44 125)"  >
<polygon style="stroke: rgb(44,91,186); stroke-width: 2; stroke-dasharray: none; stroke-linecap: butt; stroke-dashoffset: 0; stroke-linejoin: round; stroke-miterlimit: 4; fill: none; fill-rule: nonzero; opacity: 0.35;" vector-effect="non-scaling-stroke"  points="44.44,25 44.44,-25 -44.44,-25 " />
</g>
		<g transform="matrix(1 0 0 1 -133.31 125)"  >
<polygon style="stroke: rgb(44,91,186); stroke-width: 2; stroke-dasharray: none; stroke-linecap: butt; stroke-dashoffset: 0; stroke-linejoin: round; stroke-miterlimit: 4; fill: none; fill-rule: nonzero; opacity: 0.35;" vector-effect="non-scaling-stroke"  points="44.44,25 44.44,-25 -44.44,-25 " />
</g>
		<g transform="matrix(1 0 0 1 -133.31 175)"  >
<polygon style="stroke: rgb(44,91,186); stroke-width: 2; stroke-dasharray: none; stroke-linecap: butt; stroke-dashoffset: 0; stroke-linejoin: round; stroke-miterlimit: 4; fill: none; fill-rule: nonzero; opacity: 0.35;" vector-effect="non-scaling-stroke"  points="-44.44,-25 -44.44,25 44.44,-25 " />
</g>
		<g transform="matrix(1 0 0 1 -44.44 175)"  >
<polygon style="stroke: rgb(44,91,186); stroke-width: 2; stroke-dasharray: none; stroke-linecap: butt; stroke-dashoffset: 0; stroke-linejoin: round; stroke-miterlimit: 4; fill: none; fill-rule: nonzero; opacity: 0.35;" vector-effect="non-scaling-stroke"  points="44.44,-25 -44.44,-25 -44.44,25 " />
</g>
		<g transform="matrix(1 0 0 1 -444.38 50)"  >
<polygon style="stroke: rgb(44,91,186); stroke-width: 2; stroke-dasharray: none; stroke-linecap: butt; stroke-dashoffset: 0; stroke-linejoin: round; stroke-miterlimit: 4; fill: none; fill-rule: nonzero; opacity: 0.35;" vector-effect="non-scaling-stroke"  points="88.88,-50 -88.88,-50 -88.88,50 " />
</g>
		<g transform="matrix(1 0 0 1 -577.69 25)"  >
<polygon style="stroke: rgb(44,91,186); stroke-width: 2; stroke-dasharray: none; stroke-linecap: butt; stroke-dashoffset: 0; stroke-linejoin: round; stroke-miterlimit: 4; fill: none; fill-rule: nonzero; opacity: 0.35;" vector-effect="non-scaling-stroke"  points="44.44,25 -44.44,-25 44.44,-25 " />
</g>
		<g transform="matrix(1 0 0 1 -666.56 25)"  >
<polygon style="stroke: rgb(44,91,186); stroke-width: 2; stroke-dasharray: none; stroke-linecap: butt; stroke-dashoffset: 0; stroke-linejoin: round; stroke-miterlimit: 4; fill: none; fill-rule: nonzero; opacity: 0.35;" vector-effect="non-scaling-stroke"  points="44.44,-25 44.44,25 -44.44,-25 " />
</g>
		<g transform="matrix(1 0 0 1 -666.56 75)"  >
<polygon style="stroke: rgb(44,91,186); stroke-width: 2; stroke-dasharray: none; stroke-linecap: butt; stroke-dashoffset: 0; stroke-linejoin: round; stroke-miterlimit: 4; fill: none; fill-rule: nonzero; opacity: 0.35;" vector-effect="non-scaling-stroke"  points="-44.44,25 44.44,25 44.44,-25 " />
</g>
		<g transform="matrix(1 0 0 1 -577.69 75)"  >
<polygon style="stroke: rgb(44,91,186); stroke-width: 2; stroke-dasharray: none; stroke-linecap: butt; stroke-dashoffset: 0; stroke-linejoin: round; stroke-miterlimit: 4; fill: none; fill-rule: nonzero; opacity: 0.35;" vector-effect="non-scaling-stroke"  points="44.44,-25 -44.44,-25 -44.44,25 " />
</g>
		<g transform="matrix(1 0 0 1 -622.13 150)"  >
<polygon style="stroke: rgb(44,91,186); stroke-width: 2; stroke-dasharray: none; stroke-linecap: butt; stroke-dashoffset: 0; stroke-linejoin: round; stroke-miterlimit: 4; fill: none; fill-rule: nonzero; opacity: 0.35;" vector-effect="non-scaling-stroke"  points="88.88,-50 -88.88,-50 -88.88,50 " />
</g>
		<g transform="matrix(1 0 0 1 -399.94 125)"  >
<polygon style="stroke: rgb(44,91,186); stroke-width: 2; stroke-dasharray: none; stroke-linecap: butt; stroke-dashoffset: 0; stroke-linejoin: round; stroke-miterlimit: 4; fill: none; fill-rule: nonzero; opacity: 0.35;" vector-effect="non-scaling-stroke"  points="44.44,25 -44.44,25 -44.44,-25 " />
</g>
		<g transform="matrix(1 0 0 1 -488.81 125)"  >
<polygon style="stroke: rgb(44,91,186); stroke-width: 2; stroke-dasharray: none; stroke-linecap: butt; stroke-dashoffset: 0; stroke-linejoin: round; stroke-miterlimit: 4; fill: none; fill-rule: nonzero; opacity: 0.35;" vector-effect="non-scaling-stroke"  points="44.44,-25 -44.44,-25 -44.44,25 " />
</g>
		<g transform="matrix(1 0 0 1 -488.81 175)"  >
<polygon style="stroke: rgb(44,91,186); stroke-width: 2; stroke-dasharray: none; stroke-linecap: butt; stroke-dashoffset: 0; stroke-linejoin: round; stroke-miterlimit: 4; fill: none; fill-rule: nonzero; opacity: 0.35;" vector-effect="non-scaling-stroke"  points="-44.44,-25 44.44,25 -44.44,25 " />
</g>
		<g transform="matrix(1 0 0 1 -399.94 175)"  >
<polygon style="stroke: rgb(44,91,186); stroke-width: 2; stroke-dasharray: none; stroke-linecap: butt; stroke-dashoffset: 0; stroke-linejoin: round; stroke-miterlimit: 4; fill: none; fill-rule: nonzero; opacity: 0.35;" vector-effect="non-scaling-stroke"  points="-44.44,25 44.44,-25 44.44,25 " />
</g>
		<g transform="matrix(1 0 0 1 -444.38 250)"  >
<polygon style="stroke: rgb(44,91,186); stroke-width: 2; stroke-dasharray: none; stroke-linecap: butt; stroke-dashoffset: 0; stroke-linejoin: round; stroke-miterlimit: 4; fill: none; fill-rule: nonzero; opacity: 0.35;" vector-effect="non-scaling-stroke"  points="-88.88,50 -88.88,-50 88.88,50 " />
</g>
		<g transform="matrix(1 0 0 1 -622.13 250)"  >
<polygon style="stroke: rgb(44,91,186); stroke-width: 2; stroke-dasharray: none; stroke-linecap: butt; stroke-dashoffset: 0; stroke-linejoin: round; stroke-miterlimit: 4; fill: none; fill-rule: nonzero; opacity: 0.35;" vector-effect="non-scaling-stroke"  points="88.88,-50 -88.88,50 88.88,50 " />
</g>
		<g transform="matrix(1 0 0 1 -622.13 350)"  >
<polygon style="stroke: rgb(44,91,186); stroke-width: 2; stroke-dasharray: none; stroke-linecap: butt; stroke-dashoffset: 0; stroke-linejoin: round; stroke-miterlimit: 4; fill: none; fill-rule: nonzero; opacity: 0.35;" vector-effect="non-scaling-stroke"  points="-88.88,50 88.88,-50 -88.88,-50 " />
</g>
		<g transform="matrix(1 0 0 1 -444.38 350)"  >
<polygon style="stroke: rgb(44,91,186); stroke-width: 2; stroke-dasharray: none; stroke-linecap: butt; stroke-dashoffset: 0; stroke-linejoin: round; stroke-miterlimit: 4; fill: none; fill-rule: nonzero; opacity: 0.35;" vector-effect="non-scaling-stroke"  points="-88.88,50 88.88,50 88.88,-50 " />
</g>
		<g transform="matrix(1 0 0 1 -44.44 225)"  >
<polygon style="stroke: rgb(44,91,186); stroke-width: 2; stroke-dasharray: none; stroke-linecap: butt; stroke-dashoffset: 0; stroke-linejoin: round; stroke-miterlimit: 4; fill: none; fill-rule: nonzero; opacity: 0.35;" vector-effect="non-scaling-stroke"  points="44.44,25 44.44,-25 -44.44,25 " />
</g>
		<g transform="matrix(1 0 0 1 -133.31 225)"  >
<polygon style="stroke: rgb(44,91,186); stroke-width: 2; stroke-dasharray: none; stroke-linecap: butt; stroke-dashoffset: 0; stroke-linejoin: round; stroke-miterlimit: 4; fill: none; fill-rule: nonzero; opacity: 0.35;" vector-effect="non-scaling-stroke"  points="44.44,25 44.44,-25 -44.44,-25 " />
</g>
		<g transform="matrix(1 0 0 1 -133.31 275)"  >
<polygon style="stroke: rgb(44,91,186); stroke-width: 2; stroke-dasharray: none; stroke-linecap: butt; stroke-dashoffset: 0; stroke-linejoin: round; stroke-miterlimit: 4; fill: none; fill-rule: nonzero; opacity: 0.35;" vector-effect="non-scaling-stroke"  points="44.44,25 44.44,-25 -44.44,-25 " />
</g>
		<g transform="matrix(1 0 0 1 -44.44 275)"  >
<polygon style="stroke: rgb(44,91,186); stroke-width: 2; stroke-dasharray: none; stroke-linecap: butt; stroke-dashoffset: 0; stroke-linejoin: round; stroke-miterlimit: 4; fill: none; fill-rule: nonzero; opacity: 0.35;" vector-effect="non-scaling-stroke"  points="44.44,-25 -44.44,25 44.44,25 " />
</g>
		<g transform="matrix(1 0 0 1 -266.63 250)"  >
<polygon style="stroke: rgb(44,91,186); stroke-width: 2; stroke-dasharray: none; stroke-linecap: butt; stroke-dashoffset: 0; stroke-linejoin: round; stroke-miterlimit: 4; fill: none; fill-rule: nonzero; opacity: 0.35;" vector-effect="non-scaling-stroke"  points="88.88,50 -88.88,50 88.88,-50 " />
</g>
		<g transform="matrix(1 0 0 1 -266.63 350)"  >
<polygon style="stroke: rgb(44,91,186); stroke-width: 2; stroke-dasharray: none; stroke-linecap: butt; stroke-dashoffset: 0; stroke-linejoin: round; stroke-miterlimit: 4; fill: none; fill-rule: nonzero; opacity: 0.35;" vector-effect="non-scaling-stroke"  points="-88.88,50 -88.88,-50 88.88,50 " />
</g>
		<g transform="matrix(1 0 0 1 -88.88 350)"  >
<polygon style="stroke: rgb(44,91,186); stroke-width: 2; stroke-dasharray: none; stroke-linecap: butt; stroke-dashoffset: 0; stroke-linejoin: round; stroke-miterlimit: 4; fill: none; fill-rule: nonzero; opacity: 0.35;" vector-effect="non-scaling-stroke"  points="-88.88,50 88.88,50 88.88,-50 " />
</g>
		<g transform="matrix(1 0 0 1 622.13 50)"  >
<polygon style="stroke: rgb(44,91,186); stroke-width: 2; stroke-dasharray: none; stroke-linecap: butt; stroke-dashoffset: 0; stroke-linejoin: round; stroke-miterlimit: 4; fill: none; fill-rule: nonzero; opacity: 0.35;" vector-effect="non-scaling-stroke"  points="88.88,50 88.88,-50 -88.88,50 " />
</g>
		<g transform="matrix(1 0 0 1 488.82 25)"  >
<polygon style="stroke: rgb(44,91,186); stroke-width: 2; stroke-dasharray: none; stroke-linecap: butt; stroke-dashoffset: 0; stroke-linejoin: round; stroke-miterlimit: 4; fill: none; fill-rule: nonzero; opacity: 0.35;" vector-effect="non-scaling-stroke"  points="44.44,25 -44.44,-25 44.44,-25 " />
</g>
		<g transform="matrix(1 0 0 1 399.94 25)"  >
<polygon style="stroke: rgb(44,91,186); stroke-width: 2; stroke-dasharray: none; stroke-linecap: butt; stroke-dashoffset: 0; stroke-linejoin: round; stroke-miterlimit: 4; fill: none; fill-rule: nonzero; opacity: 0.35;" vector-effect="non-scaling-stroke"  points="-44.44,-25 44.44,25 -44.44,25 " />
</g>
		<g transform="matrix(1 0 0 1 399.94 75)"  >
<polygon style="stroke: rgb(44,91,186); stroke-width: 2; stroke-dasharray: none; stroke-linecap: butt; stroke-dashoffset: 0; stroke-linejoin: round; stroke-miterlimit: 4; fill: none; fill-rule: nonzero; opacity: 0.35;" vector-effect="non-scaling-stroke"  points="44.44,25 44.44,-25 -44.44,-25 " />
</g>
		<g transform="matrix(1 0 0 1 488.82 75)"  >
<polygon style="stroke: rgb(44,91,186); stroke-width: 2; stroke-dasharray: none; stroke-linecap: butt; stroke-dashoffset: 0; stroke-linejoin: round; stroke-miterlimit: 4; fill: none; fill-rule: nonzero; opacity: 0.35;" vector-effect="non-scaling-stroke"  points="44.44,-25 44.44,25 -44.44,-25 " />
</g>
		<g transform="matrix(1 0 0 1 444.38 150)"  >
<polygon style="stroke: rgb(44,91,186); stroke-width: 2; stroke-dasharray: none; stroke-linecap: butt; stroke-dashoffset: 0; stroke-linejoin: round; stroke-miterlimit: 4; fill: none; fill-rule: nonzero; opacity: 0.35;" vector-effect="non-scaling-stroke"  points="-88.88,-50 88.88,50 -88.88,50 " />
</g>
		<g transform="matrix(1 0 0 1 622.13 150)"  >
<polygon style="stroke: rgb(44,91,186); stroke-width: 2; stroke-dasharray: none; stroke-linecap: butt; stroke-dashoffset: 0; stroke-linejoin: round; stroke-miterlimit: 4; fill: none; fill-rule: nonzero; opacity: 0.35;" vector-effect="non-scaling-stroke"  points="88.88,50 -88.88,-50 -88.88,50 " />
</g>
		<g transform="matrix(1 0 0 1 311.07 25)"  >
<polygon style="stroke: rgb(44,91,186); stroke-width: 2; stroke-dasharray: none; stroke-linecap: butt; stroke-dashoffset: 0; stroke-linejoin: round; stroke-miterlimit: 4; fill: none; fill-rule: nonzero; opacity: 0.35;" vector-effect="non-scaling-stroke"  points="44.44,25 44.44,-25 -44.44,25 " />
</g>
		<g transform="matrix(1 0 0 1 222.19 25)"  >
<polygon style="stroke: rgb(44,91,186); stroke-width: 2; stroke-dasharray: none; stroke-linecap: butt; stroke-dashoffset: 0; stroke-linejoin: round; stroke-miterlimit: 4; fill: none; fill-rule: nonzero; opacity: 0.35;" vector-effect="non-scaling-stroke"  points="-44.44,-25 44.44,-25 44.44,25 " />
</g>
		<g transform="matrix(1 0 0 1 222.19 75)"  >
<polygon style="stroke: rgb(44,91,186); stroke-width: 2; stroke-dasharray: none; stroke-linecap: butt; stroke-dashoffset: 0; stroke-linejoin: round; stroke-miterlimit: 4; fill: none; fill-rule: nonzero; opacity: 0.35;" vector-effect="non-scaling-stroke"  points="44.44,-25 -44.44,25 44.44,25 " />
</g>
		<g transform="matrix(1 0 0 1 311.07 75)"  >
<polygon style="stroke: rgb(44,91,186); stroke-width: 2; stroke-dasharray: none; stroke-linecap: butt; stroke-dashoffset: 0; stroke-linejoin: round; stroke-miterlimit: 4; fill: none; fill-rule: nonzero; opacity: 0.35;" vector-effect="non-scaling-stroke"  points="44.44,25 -44.44,-25 -44.44,25 " />
</g>
		<g transform="matrix(1 0 0 1 133.32 25)"  >
<polygon style="stroke: rgb(44,91,186); stroke-width: 2; stroke-dasharray: none; stroke-linecap: butt; stroke-dashoffset: 0; stroke-linejoin: round; stroke-miterlimit: 4; fill: none; fill-rule: nonzero; opacity: 0.35;" vector-effect="non-scaling-stroke"  points="44.44,25 -44.44,-25 44.44,-25 " />
</g>
		<g transform="matrix(1 0 0 1 44.44 25)"  >
<polygon style="stroke: rgb(44,91,186); stroke-width: 2; stroke-dasharray: none; stroke-linecap: butt; stroke-dashoffset: 0; stroke-linejoin: round; stroke-miterlimit: 4; fill: none; fill-rule: nonzero; opacity: 0.35;" vector-effect="non-scaling-stroke"  points="44.44,25 44.44,-25 -44.44,-25 " />
</g>
		<g transform="matrix(1 0 0 1 44.44 75)"  >
<polygon style="stroke: rgb(44,91,186); stroke-width: 2; stroke-dasharray: none; stroke-linecap: butt; stroke-dashoffset: 0; stroke-linejoin: round; stroke-miterlimit: 4; fill: none; fill-rule: nonzero; opacity: 0.35;" vector-effect="non-scaling-stroke"  points="44.44,-25 -44.44,25 -44.44,-25 " />
</g>
		<g transform="matrix(1 0 0 1 133.32 75)"  >
<polygon style="stroke: rgb(44,91,186); stroke-width: 2; stroke-dasharray: none; stroke-linecap: butt; stroke-dashoffset: 0; stroke-linejoin: round; stroke-miterlimit: 4; fill: none; fill-rule: nonzero; opacity: 0.35;" vector-effect="non-scaling-stroke"  points="-44.44,25 44.44,25 44.44,-25 " />
</g>
		<g transform="matrix(1 0 0 1 88.88 150)"  >
<polygon style="stroke: rgb(44,91,186); stroke-width: 2; stroke-dasharray: none; stroke-linecap: butt; stroke-dashoffset: 0; stroke-linejoin: round; stroke-miterlimit: 4; fill: none; fill-rule: nonzero; opacity: 0.35;" vector-effect="non-scaling-stroke"  points="-88.88,-50 88.88,50 -88.88,50 " />
</g>
		<g transform="matrix(1 0 0 1 311.07 125)"  >
<polygon style="stroke: rgb(44,91,186); stroke-width: 2; stroke-dasharray: none; stroke-linecap: butt; stroke-dashoffset: 0; stroke-linejoin: round; stroke-miterlimit: 4; fill: none; fill-rule: nonzero; opacity: 0.35;" vector-effect="non-scaling-stroke"  points="44.44,-25 44.44,25 -44.44,25 " />
</g>
		<g transform="matrix(1 0 0 1 222.19 125)"  >
<polygon style="stroke: rgb(44,91,186); stroke-width: 2; stroke-dasharray: none; stroke-linecap: butt; stroke-dashoffset: 0; stroke-linejoin: round; stroke-miterlimit: 4; fill: none; fill-rule: nonzero; opacity: 0.35;" vector-effect="non-scaling-stroke"  points="44.44,-25 -44.44,25 44.44,25 " />
</g>
		<g transform="matrix(1 0 0 1 222.19 175)"  >
<polygon style="stroke: rgb(44,91,186); stroke-width: 2; stroke-dasharray: none; stroke-linecap: butt; stroke-dashoffset: 0; stroke-linejoin: round; stroke-miterlimit: 4; fill: none; fill-rule: nonzero; opacity: 0.35;" vector-effect="non-scaling-stroke"  points="-44.44,25 44.44,25 44.44,-25 " />
</g>
		<g transform="matrix(1 0 0 1 311.07 175)"  >
<polygon style="stroke: rgb(44,91,186); stroke-width: 2; stroke-dasharray: none; stroke-linecap: butt; stroke-dashoffset: 0; stroke-linejoin: round; stroke-miterlimit: 4; fill: none; fill-rule: nonzero; opacity: 0.35;" vector-effect="non-scaling-stroke"  points="44.44,25 -44.44,25 44.44,-25 " />
</g>
		<g transform="matrix(1 0 0 1 311.07 225)"  >
<polygon style="stroke: rgb(44,91,186); stroke-width: 2; stroke-dasharray: none; stroke-linecap: butt; stroke-dashoffset: 0; stroke-linejoin: round; stroke-miterlimit: 4; fill: none; fill-rule: nonzero; opacity: 0.35;" vector-effect="non-scaling-stroke"  points="44.44,25 -44.44,25 44.44,-25 " />
</g>
		<g transform="matrix(1 0 0 1 222.19 225)"  >
<polygon style="stroke: rgb(44,91,186); stroke-width: 2; stroke-dasharray: none; stroke-linecap: butt; stroke-dashoffset: 0; stroke-linejoin: round; stroke-miterlimit: 4; fill: none; fill-rule: nonzero; opacity: 0.35;" vector-effect="non-scaling-stroke"  points="-44.44,25 44.44,-25 44.44,25 " />
</g>
		<g transform="matrix(1 0 0 1 222.19 275)"  >
<polygon style="stroke: rgb(44,91,186); stroke-width: 2; stroke-dasharray: none; stroke-linecap: butt; stroke-dashoffset: 0; stroke-linejoin: round; stroke-miterlimit: 4; fill: none; fill-rule: nonzero; opacity: 0.35;" vector-effect="non-scaling-stroke"  points="44.44,25 44.44,-25 -44.44,-25 " />
</g>
		<g transform="matrix(1 0 0 1 311.07 275)"  >
<polygon style="stroke: rgb(44,91,186); stroke-width: 2; stroke-dasharray: none; stroke-linecap: butt; stroke-dashoffset: 0; stroke-linejoin: round; stroke-miterlimit: 4; fill: none; fill-rule: nonzero; opacity: 0.35;" vector-effect="non-scaling-stroke"  points="44.44,-25 -44.44,25 44.44,25 " />
</g>
		<g transform="matrix(1 0 0 1 133.32 225)"  >
<polygon style="stroke: rgb(44,91,186); stroke-width: 2; stroke-dasharray: none; stroke-linecap: butt; stroke-dashoffset: 0; stroke-linejoin: round; stroke-miterlimit: 4; fill: none; fill-rule: nonzero; opacity: 0.35;" vector-effect="non-scaling-stroke"  points="-44.44,-25 44.44,-25 -44.44,25 " />
</g>
		<g transform="matrix(1 0 0 1 44.44 225)"  >
<polygon style="stroke: rgb(44,91,186); stroke-width: 2; stroke-dasharray: none; stroke-linecap: butt; stroke-dashoffset: 0; stroke-linejoin: round; stroke-miterlimit: 4; fill: none; fill-rule: nonzero; opacity: 0.35;" vector-effect="non-scaling-stroke"  points="44.44,25 -44.44,-25 -44.44,25 " />
</g>
		<g transform="matrix(1 0 0 1 44.44 275)"  >
<polygon style="stroke: rgb(44,91,186); stroke-width: 2; stroke-dasharray: none; stroke-linecap: butt; stroke-dashoffset: 0; stroke-linejoin: round; stroke-miterlimit: 4; fill: none; fill-rule: nonzero; opacity: 0.35;" vector-effect="non-scaling-stroke"  points="-44.44,-25 44.44,25 44.44,-25 " />
</g>
		<g transform="matrix(1 0 0 1 133.32 275)"  >
<polygon style="stroke: rgb(44,91,186); stroke-width: 2; stroke-dasharray: none; stroke-linecap: butt; stroke-dashoffset: 0; stroke-linejoin: round; stroke-miterlimit: 4; fill: none; fill-rule: nonzero; opacity: 0.35;" vector-effect="non-scaling-stroke"  points="44.44,25 -44.44,25 -44.44,-25 " />
</g>
		<g transform="matrix(1 0 0 1 88.88 350)"  >
<polygon style="stroke: rgb(44,91,186); stroke-width: 2; stroke-dasharray: none; stroke-linecap: butt; stroke-dashoffset: 0; stroke-linejoin: round; stroke-miterlimit: 4; fill: none; fill-rule: nonzero; opacity: 0.35;" vector-effect="non-scaling-stroke"  points="88.88,50 -88.88,50 88.88,-50 " />
</g>
		<g transform="matrix(1 0 0 1 266.63 350)"  >
<polygon style="stroke: rgb(44,91,186); stroke-width: 2; stroke-dasharray: none; stroke-linecap: butt; stroke-dashoffset: 0; stroke-linejoin: round; stroke-miterlimit: 4; fill: none; fill-rule: nonzero; opacity: 0.35;" vector-effect="non-scaling-stroke"  points="88.88,-50 -88.88,-50 88.88,50 " />
</g>
		<g transform="matrix(1 0 0 1 622.13 250)"  >
<polygon style="stroke: rgb(44,91,186); stroke-width: 2; stroke-dasharray: none; stroke-linecap: butt; stroke-dashoffset: 0; stroke-linejoin: round; stroke-miterlimit: 4; fill: none; fill-rule: nonzero; opacity: 0.35;" vector-effect="non-scaling-stroke"  points="88.88,-50 88.88,50 -88.88,50 " />
</g>
		<g transform="matrix(1 0 0 1 444.38 250)"  >
<polygon style="stroke: rgb(44,91,186); stroke-width: 2; stroke-dasharray: none; stroke-linecap: butt; stroke-dashoffset: 0; stroke-linejoin: round; stroke-miterlimit: 4; fill: none; fill-rule: nonzero; opacity: 0.35;" vector-effect="non-scaling-stroke"  points="88.88,-50 -88.88,50 88.88,50 " />
</g>
		<g transform="matrix(1 0 0 1 444.38 350)"  >
<polygon style="stroke: rgb(44,91,186); stroke-width: 2; stroke-dasharray: none; stroke-linecap: butt; stroke-dashoffset: 0; stroke-linejoin: round; stroke-miterlimit: 4; fill: none; fill-rule: nonzero; opacity: 0.35;" vector-effect="non-scaling-stroke"  points="88.88,-50 88.88,50 -88.88,50 " />
</g>
		<g transform="matrix(1 0 0 1 622.13 350)"  >
<polygon style="stroke: rgb(44,91,186); stroke-width: 2; stroke-dasharray: none; stroke-linecap: butt; stroke-dashoffset: 0; stroke-linejoin: round; stroke-miterlimit: 4; fill: none; fill-rule: nonzero; opacity: 0.35;" vector-effect="non-scaling-stroke"  points="88.88,-50 88.88,50 -88.88,-50 " />
</g>
</g>
</g>
</svg>